<svg width="1076" height="412" viewBox="0 0 1076 412" fill="none" xmlns="http://www.w3.org/2000/svg">
<path d="M9.06974 112.359C9.40266 111.515 10.5973 111.515 10.9303 112.359L12.6691 116.768C12.7707 117.025 12.9747 117.229 13.2325 117.331L17.6413 119.07C18.4854 119.403 18.4854 120.597 17.6413 120.93L13.2325 122.669C12.9747 122.771 12.7707 122.975 12.6691 123.232L10.9303 127.641C10.5973 128.485 9.40266 128.485 9.06974 127.641L7.33092 123.232C7.22927 122.975 7.02527 122.771 6.76755 122.669L2.35872 120.93C1.51457 120.597 1.51457 119.403 2.35872 119.07L6.76755 117.331C7.02527 117.229 7.22927 117.025 7.33092 116.768L9.06974 112.359Z" fill="white"/>
<path opacity="0.5" d="M933.07 396.359C933.403 395.515 934.597 395.515 934.93 396.359L936.386 400.05C936.488 400.308 936.692 400.512 936.95 400.614L940.641 402.07C941.485 402.403 941.485 403.597 940.641 403.93L936.95 405.386C936.692 405.488 936.488 405.692 936.386 405.95L934.93 409.641C934.597 410.485 933.403 410.485 933.07 409.641L931.614 405.95C931.512 405.692 931.308 405.488 931.05 405.386L927.359 403.93C926.515 403.597 926.515 402.403 927.359 402.07L931.05 400.614C931.308 400.512 931.512 400.308 931.614 400.05L933.07 396.359Z" fill="white"/>
<path d="M1066.07 45.3587C1066.4 44.5146 1067.6 44.5146 1067.93 45.3587L1069.39 49.0504C1069.49 49.3081 1069.69 49.5121 1069.95 49.6138L1073.64 51.0697C1074.49 51.4027 1074.49 52.5973 1073.64 52.9303L1069.95 54.3862C1069.69 54.4879 1069.49 54.6919 1069.39 54.9496L1067.93 58.6413C1067.6 59.4854 1066.4 59.4854 1066.07 58.6413L1064.61 54.9496C1064.51 54.6919 1064.31 54.4879 1064.05 54.3862L1060.36 52.9303C1059.51 52.5973 1059.51 51.4027 1060.36 51.0697L1064.05 49.6138C1064.31 49.5121 1064.51 49.3081 1064.61 49.0504L1066.07 45.3587Z" fill="white"/>
<circle cx="722" cy="6" r="5.5" stroke="white"/>
<circle cx="171" cy="343" r="3" fill="white"/>
<circle cx="305" cy="15" r="3" fill="white"/>
</svg>
