<svg width="70" height="20" viewBox="0 0 70 20" fill="none" xmlns="http://www.w3.org/2000/svg">
<path opacity="0.2" d="M34.0697 2.35872C34.4027 1.51457 35.5973 1.51457 35.9303 2.35872L37.6691 6.76755C37.7707 7.02527 37.9747 7.22927 38.2325 7.33092L42.6413 9.06974C43.4854 9.40266 43.4854 10.5973 42.6413 10.9303L38.2325 12.6691C37.9747 12.7707 37.7707 12.9747 37.6691 13.2325L35.9303 17.6413C35.5973 18.4854 34.4027 18.4854 34.0697 17.6413L32.3309 13.2325C32.2293 12.9747 32.0253 12.7707 31.7675 12.6691L27.3587 10.9303C26.5146 10.5973 26.5146 9.40266 27.3587 9.06974L31.7675 7.33092C32.0253 7.22927 32.2293 7.02527 32.3309 6.76755L34.0697 2.35872Z" fill="#64647A"/>
<path opacity="0.2" d="M61.0697 4.35872C61.4027 3.51457 62.5973 3.51457 62.9303 4.35872L64.1034 7.33323C64.205 7.59095 64.409 7.79496 64.6668 7.8966L67.6413 9.06974C68.4854 9.40266 68.4854 10.5973 67.6413 10.9303L64.6668 12.1034C64.409 12.205 64.205 12.409 64.1034 12.6668L62.9303 15.6413C62.5973 16.4854 61.4027 16.4854 61.0697 15.6413L59.8966 12.6668C59.795 12.409 59.591 12.205 59.3332 12.1034L56.3587 10.9303C55.5146 10.5973 55.5146 9.40266 56.3587 9.06974L59.3332 7.8966C59.591 7.79496 59.795 7.59095 59.8966 7.33323L61.0697 4.35872Z" fill="#64647A"/>
<path opacity="0.2" d="M7.06974 5.35872C7.40266 4.51457 8.59734 4.51457 8.93026 5.35872L10.1034 8.33323C10.205 8.59095 10.409 8.79496 10.6668 8.8966L13.6413 10.0697C14.4854 10.4027 14.4854 11.5973 13.6413 11.9303L10.6668 13.1034C10.409 13.205 10.205 13.409 10.1034 13.6668L8.93026 16.6413C8.59734 17.4854 7.40266 17.4854 7.06974 16.6413L5.8966 13.6668C5.79496 13.409 5.59095 13.205 5.33323 13.1034L2.35872 11.9303C1.51457 11.5973 1.51457 10.4027 2.35872 10.0697L5.33323 8.8966C5.59095 8.79496 5.79496 8.59095 5.8966 8.33323L7.06974 5.35872Z" fill="#64647A"/>
</svg>
